<svg width="142" height="28" viewBox="0 0 142 28" fill="none" xmlns="http://www.w3.org/2000/svg">
<path d="M22.32 28H0.92V0.159998H11.76C14.08 0.159998 15.9733 0.573332 17.44 1.4C18.88 2.2 20 3.29333 20.8 4.68C21.6 6.06667 22 7.6 22 9.28C22 11.36 21.36 13.2267 20.08 14.88C18.8 16.5067 17.1867 17.5867 15.24 18.12L22.32 28ZM3.44 1.64L14.32 16.84C16.1067 16.4667 17.5867 15.5733 18.76 14.16C19.9333 12.7467 20.52 11.12 20.52 9.28C20.52 7.81333 20.16 6.48 19.44 5.28C18.72 4.08 17.7067 3.16 16.4 2.52C15.2267 1.93333 13.6933 1.64 11.8 1.64H3.44ZM2.4 2.6V16.96H12.68L2.4 2.6ZM2.4 26.52H19.52L13.68 18.4L12.44 18.44H2.4V26.52ZM30.8094 0.159998H50.4094V1.64H32.2894V12.92H48.0494V14.4H32.2894V26.52H50.4094V28H30.8094V0.159998ZM61.4188 28V0.159998H62.8988V26.52H82.2988V28H61.4188ZM108.668 0.159998V1.64H100.348V26.52H108.668V28H90.6281V26.52H98.9081V1.64H90.6281V0.159998H108.668ZM120.317 0.159998V19L139.198 0.159998H141.278L129.638 11.76L141.238 28H139.478L128.598 12.8L120.317 21.08V28H118.838V0.159998H120.317Z" fill="white"/>
</svg>
